<?xml version="1.0" standalone="no"?>
<!DOCTYPE svg PUBLIC "-//W3C//DTD SVG 20010904//EN"
 "http://www.w3.org/TR/2001/REC-SVG-20010904/DTD/svg10.dtd">
<svg version="1.0" xmlns="http://www.w3.org/2000/svg"
 width="700.000000pt" height="700.000000pt" viewBox="0 0 700.000000 700.000000"
 preserveAspectRatio="xMidYMid meet">
<metadata>
Created by potrace 1.11, written by Peter Selinger 2001-2013
</metadata>
<g transform="translate(0.000000,700.000000) scale(0.100000,-0.100000)"
fill="#000000" stroke="none">
<path d="M1756 6992 c-3 -5 -146 -569 -171 -672 -9 -40 -275 -1097 -350 -1395
-48 -187 -88 -349 -91 -360 -2 -11 -54 -218 -115 -460 -235 -935 -548 -2183
-553 -2206 -2 -13 -48 -195 -100 -404 -53 -209 -98 -389 -101 -400 -2 -11 -29
-119 -60 -240 -31 -121 -58 -229 -61 -240 -2 -10 -20 -82 -40 -160 -20 -77
-38 -147 -39 -155 -2 -8 -15 -62 -30 -120 -43 -169 -44 -174 -41 -177 2 -2
1830 454 4061 1015 633 159 1552 390 2043 513 l893 224 -6 85 c-3 47 -8 103
-10 125 -20 178 -22 196 -41 315 -28 177 -42 249 -90 450 -118 493 -322 1010
-572 1445 -234 408 -512 778 -833 1110 -112 117 -245 244 -339 325 -41 36 -77
67 -80 70 -27 29 -248 201 -368 287 -128 92 -399 268 -476 309 -289 154 -344
182 -458 233 -27 11 -69 31 -95 42 -27 12 -82 35 -123 51 -41 16 -84 33 -95
38 -11 5 -47 19 -80 31 -33 11 -67 23 -75 26 -8 4 -17 7 -20 8 -3 1 -63 20
-135 43 -166 53 -392 113 -515 138 -14 3 -32 7 -40 9 -8 2 -28 7 -45 9 -16 3
-93 16 -170 30 -77 13 -171 27 -210 31 -38 4 -79 8 -91 10 -24 4 -123 13 -211
20 -34 2 -64 1 -67 -3z"/>
</g>
</svg>
